<svg width="100" height="100" viewBox="0 0 100 100" fill="none" xmlns="http://www.w3.org/2000/svg">
<path d="M85.8214 74.6491C84.243 76.2333 82.1037 77.1219 79.8742 77.1176H19.4C17.1705 77.1219 15.0312 76.2333 13.4528 74.6491L40.8679 47.048L45.5044 50.4309C47.9614 52.2583 51.3128 52.2583 53.7698 50.4309L58.4063 47.048L85.8214 74.6491Z" fill="#FFA000"/>
<path d="M86.6614 26.4845L58.4063 47.048L53.7699 50.4309C51.3129 52.2583 47.9615 52.2583 45.5044 50.4309L40.868 47.048L12.58 26.5174C14.1526 24.3022 16.6941 22.9915 19.4001 23H79.8742C82.5602 23.0029 85.083 24.2965 86.6614 26.4845Z" fill="#FFD54F"/>
<path d="M12.5799 26.5203L40.8679 47.0509L13.4528 74.6506C11.8787 73.0622 10.9958 70.9085 11.0001 68.6647V31.4587C10.9929 29.6857 11.5453 27.9556 12.5799 26.5203Z" fill="#FFC107"/>
<path d="M88.2742 31.4558V68.6619C88.2784 70.9057 87.3955 73.0593 85.8214 74.6492L58.4063 47.048L86.6614 26.4845C87.7103 27.927 88.2756 29.6685 88.2742 31.4558Z" fill="#FFC107"/>
<path d="M84.448 36.896C90.7702 36.896 95.896 31.7702 95.896 25.448C95.896 19.1258 90.7702 14 84.448 14C78.1258 14 73 19.1258 73 25.448C73 31.7702 78.1258 36.896 84.448 36.896Z" fill="#1FAD53"/>
<path d="M82.3949 29.4493C82.6094 29.6375 82.8974 29.741 83.1963 29.741L83.1951 29.4658V29.741C83.4927 29.741 83.7807 29.6375 83.994 29.4493L89.8458 24.3052L89.8494 24.3019C90.2796 23.9089 90.2796 23.2826 89.8494 22.8907C89.4131 22.4944 88.6998 22.4834 88.2491 22.8654L88.2454 22.8687L83.1951 27.3093L80.6512 25.0736L80.6476 25.0703C80.2077 24.6971 79.5148 24.6971 79.0762 25.0703C78.6183 25.4589 78.605 26.104 79.0473 26.5057V26.5068L79.0509 26.5101L82.3949 29.4493Z" fill="#FAFAFA" stroke="white" stroke-width="0.5"/>
</svg>
