<svg id='iconoMail' viewBox="0 0 72 72" fill="none" xmlns="http://www.w3.org/2000/svg">
<path d="M58.83 18.9484L59.4401 18.4195L58.6948 18.109C58.4345 18.0006 58.1471 17.9375 57.8437 17.9375H13.1562C12.8526 17.9375 12.5653 18.0007 12.3053 18.1089L11.5594 18.4193L12.1699 18.9484L35.1725 38.8848L35.5 39.1686L35.8275 38.8848L58.83 18.9484ZM11.765 21.8244L10.9375 21.1073V22.2023V51.0937C10.9375 52.3183 11.9318 53.3125 13.1563 53.3125H57.8437C59.0682 53.3125 60.0624 52.3182 60.0625 51.0938V51.0938V22.2023V21.1073L59.235 21.8244L36.2991 41.7023C36.0691 41.9013 35.7852 42 35.5 42C35.2149 42 34.9309 41.9012 34.7008 41.7022L11.765 21.8244ZM13.1563 15.5H57.8437C60.4109 15.5 62.5 17.5891 62.5 20.1563V51.0938C62.5 53.661 60.4109 55.7501 57.8437 55.7501H13.1563C10.5891 55.7501 8.5 53.661 8.5 51.0938V20.1563C8.5 17.5891 10.5891 15.5 13.1563 15.5Z" fill="#000" stroke="#000"/>
</svg>
