<svg id='iconoSuccessRelleno' viewBox="0 0 72 72" fill="none" xmlns="http://www.w3.org/2000/svg">
<path d="M68 36C68 53.6731 53.6731 68 36 68C18.3269 68 4 53.6731 4 36C4 18.3269 18.3269 4 36 4C53.6731 4 68 18.3269 68 36Z" fill="#1FAD53"/>
<path fill-rule="evenodd" clip-rule="evenodd" d="M51.3589 23.5325C52.1694 24.2829 52.218 25.5483 51.4676 26.3588L30.7451 48.7391L20.7336 40.5479C19.8787 39.8485 19.7527 38.5884 20.4521 37.7335C21.1516 36.8786 22.4116 36.7526 23.2665 37.4521L30.3662 43.2609L48.5325 23.6412C49.283 22.8307 50.5484 22.782 51.3589 23.5325Z" fill="#FFF"/>
</svg>
