<svg id='iconoErrorRelleno' viewBox="0 0 72 72" fill="none" xmlns="http://www.w3.org/2000/svg">
<circle cx="36" cy="36" r="32" fill="#EB4132"/>
<path fill-rule="evenodd" clip-rule="evenodd" d="M46.4608 22.5858C47.2418 21.8047 48.5082 21.8047 49.2892 22.5858C50.0703 23.3668 50.0703 24.6332 49.2892 25.4142L38.7659 35.9375L49.2892 46.4608C50.0703 47.2418 50.0703 48.5082 49.2892 49.2892C48.5082 50.0703 47.2418 50.0703 46.4608 49.2892L35.9375 38.7659L25.4142 49.2892C24.6332 50.0703 23.3668 50.0703 22.5858 49.2892C21.8047 48.5082 21.8047 47.2418 22.5858 46.4608L33.1091 35.9375L22.5858 25.4142C21.8047 24.6332 21.8047 23.3668 22.5858 22.5858C23.3668 21.8047 24.6332 21.8047 25.4142 22.5858L35.9375 33.1091L46.4608 22.5858Z" fill="white"/>
</svg>
