<svg id='iconoShow' viewBox="0 0 72 72" fill="none" xmlns="http://www.w3.org/2000/svg">
<path d="M36 23.1667C34.7856 23.1856 33.5801 23.3786 32.4204 23.7396C32.9568 24.683 33.2425 25.7481 33.25 26.8333C33.25 27.676 33.084 28.5104 32.7616 29.2889C32.4391 30.0674 31.9664 30.7748 31.3706 31.3706C30.7747 31.9664 30.0674 32.4391 29.2889 32.7616C28.5104 33.084 27.676 33.25 26.8333 33.25C25.7481 33.2425 24.6829 32.9569 23.7396 32.4204C22.9953 35.0017 23.082 37.7518 23.9875 40.2811C24.893 42.8104 26.5714 44.9907 28.7849 46.5131C30.9983 48.0355 33.6347 48.8229 36.3206 48.7637C39.0064 48.7045 41.6056 47.8018 43.7498 46.1834C45.8941 44.5649 47.4748 42.3129 48.2681 39.7462C49.0613 37.1795 49.0268 34.4282 48.1696 31.8822C47.3123 29.3361 45.6757 27.1244 43.4916 25.5601C41.3074 23.9959 38.6865 23.1586 36 23.1667V23.1667ZM68.6013 34.3271C62.3874 22.203 50.0858 14 36 14C21.9142 14 9.60912 22.2088 3.39869 34.3282C3.13657 34.8467 3 35.4196 3 36.0006C3 36.5816 3.13657 37.1544 3.39869 37.6729C9.61255 49.797 21.9142 58 36 58C50.0858 58 62.3909 49.7912 68.6013 37.6718C68.8634 37.1533 69 36.5804 69 35.9994C69 35.4184 68.8634 34.8456 68.6013 34.3271V34.3271ZM36 52.5C24.6963 52.5 14.3334 46.1979 8.73714 36C14.3334 25.8021 24.6952 19.5 36 19.5C47.3048 19.5 57.6666 25.8021 63.2629 36C57.6677 46.1979 47.3048 52.5 36 52.5Z" fill="#000"/>
</svg>
