<svg id='iconoHide' viewBox="0 0 72 72" fill="none" xmlns="http://www.w3.org/2000/svg">
<path d="M69.3615 58.5957L5.82592 8.37705C5.65165 8.23598 5.45161 8.131 5.23722 8.0681C5.02282 8.00519 4.79827 7.9856 4.57639 8.01044C4.3545 8.03528 4.13963 8.10406 3.94403 8.21286C3.74844 8.32165 3.57596 8.46834 3.43643 8.64453L2.37396 9.98623C2.23411 10.1625 2.13001 10.3649 2.06761 10.5819C2.00521 10.7988 1.98573 11.0261 2.01031 11.2507C2.03488 11.4753 2.10301 11.6928 2.21081 11.8908C2.3186 12.0887 2.46395 12.2632 2.63852 12.4043L66.1741 62.6229C66.3483 62.764 66.5484 62.869 66.7628 62.9319C66.9772 62.9948 67.2017 63.0144 67.4236 62.9896C67.6455 62.9647 67.8604 62.8959 68.056 62.7871C68.2516 62.6783 68.424 62.5317 68.5636 62.3555L69.626 61.0138C69.7659 60.8375 69.87 60.6351 69.9324 60.4181C69.9948 60.2012 70.0143 59.9739 69.9897 59.7493C69.9651 59.5247 69.897 59.3072 69.7892 59.1092C69.6814 58.9113 69.5361 58.7368 69.3615 58.5957V58.5957ZM33.534 23.7341L47.855 35.0542C47.6191 28.6153 42.4258 23.4688 36 23.4688C35.1711 23.4703 34.3447 23.5592 33.534 23.7341ZM38.466 47.267L24.145 35.9469C24.3819 42.3847 29.5753 47.5312 36 47.5312C36.8288 47.5295 37.6552 47.4409 38.466 47.267V47.267ZM36 20.0313C46.4812 20.0313 56.0902 25.9395 61.2793 35.5C60.0073 37.8529 58.4356 40.0271 56.6044 41.9668L60.6142 45.1357C62.8466 42.7211 64.738 40.0059 66.2346 37.0673C66.4777 36.5812 66.6043 36.0441 66.6043 35.4995C66.6043 34.9548 66.4777 34.4177 66.2346 33.9316C60.4676 22.5653 49.0609 14.875 36 14.875C32.1007 14.875 28.381 15.627 24.8834 16.8956L29.8143 20.7939C31.8266 20.332 33.8878 20.0313 36 20.0313ZM36 50.9688C25.5188 50.9688 15.9109 45.0605 10.7207 35.5C11.9944 33.1471 13.5679 30.9733 15.4009 29.0343L11.3911 25.8653C9.15904 28.2796 7.26798 30.9945 5.77174 33.9327C5.52869 34.4188 5.40206 34.9559 5.40206 35.5005C5.40206 36.0452 5.52869 36.5823 5.77174 37.0684C11.5335 48.4347 22.9401 56.125 36 56.125C39.8993 56.125 43.619 55.3677 47.1166 54.1044L42.1857 50.2071C40.1734 50.668 38.1132 50.9688 36 50.9688Z" fill="#000"/>
</svg>
