<svg id='iconoPassword' viewBox="0 0 72 72" fill="none" xmlns="http://www.w3.org/2000/svg">
<path d="M50.9688 62.5H20.0312C17.4656 62.5 15.375 60.4116 15.375 57.8438V33.7812C15.375 31.2134 17.4656 29.125 20.0312 29.125H50.9688C53.5344 29.125 55.625 31.2134 55.625 33.7812V57.8438C55.625 60.4116 53.5344 62.5 50.9688 62.5ZM20.0312 31.5625C18.8088 31.5625 17.8125 32.556 17.8125 33.7812V57.8438C17.8125 59.069 18.8088 60.0625 20.0312 60.0625H50.9688C52.1912 60.0625 53.1875 59.069 53.1875 57.8438V33.7812C53.1875 32.556 52.1912 31.5625 50.9688 31.5625H20.0312Z" fill="#000" stroke="#000"/>
<path d="M47.5312 31.5625C46.8586 31.5625 46.3125 31.0164 46.3125 30.3438V21.75C46.3125 15.7881 41.4619 10.9375 35.5 10.9375C29.5381 10.9375 24.6875 15.7881 24.6875 21.75V30.3438C24.6875 31.0164 24.1414 31.5625 23.4688 31.5625C22.7961 31.5625 22.25 31.0164 22.25 30.3438V21.75C22.25 14.4428 28.1928 8.5 35.5 8.5C42.8072 8.5 48.75 14.4428 48.75 21.75V30.3438C48.75 31.0164 48.2039 31.5625 47.5312 31.5625Z" fill="#000" stroke="#000"/>
</svg>
