<svg  id='iconoUser' viewBox="0 0 72 72" fill="none" xmlns="http://www.w3.org/2000/svg">
<path fill-rule="evenodd" clip-rule="evenodd" d="M54.9372 56.625C49.9523 61.2043 43.3026 63.9999 36 63.9999C28.6973 63.9999 22.0476 61.2043 17.0627 56.6249C22.0476 52.0455 28.6973 49.25 35.9999 49.25C43.3026 49.25 49.9523 52.0456 54.9372 56.625ZM57.6835 53.7164C51.982 48.4603 44.3659 45.25 35.9999 45.25C27.634 45.25 20.0179 48.4603 14.3164 53.7163C10.3685 48.89 8 42.7216 8 35.9999C8 20.536 20.536 7.99994 36 7.99994C51.464 7.99994 64 20.536 64 35.9999C64 42.7216 61.6315 48.8901 57.6835 53.7164ZM68 35.9999C68 53.673 53.6731 67.9999 36 67.9999C18.3269 67.9999 4 53.673 4 35.9999C4 18.3268 18.3269 3.99994 36 3.99994C53.6731 3.99994 68 18.3268 68 35.9999Z" fill="#000"/>
<path fill-rule="evenodd" clip-rule="evenodd" d="M36.25 40.0001C41.7728 40.0001 46.25 35.5229 46.25 30.0001C46.25 24.4772 41.7728 20.0001 36.25 20.0001C30.7272 20.0001 26.25 24.4772 26.25 30.0001C26.25 35.5229 30.7272 40.0001 36.25 40.0001ZM36.25 44.0001C43.982 44.0001 50.25 37.732 50.25 30.0001C50.25 22.2681 43.982 16.0001 36.25 16.0001C28.518 16.0001 22.25 22.2681 22.25 30.0001C22.25 37.732 28.518 44.0001 36.25 44.0001Z" fill="#000"/>
</svg>
