<?xml version="1.0" standalone="no"?>
<!DOCTYPE svg PUBLIC "-//W3C//DTD SVG 20010904//EN"
 "http://www.w3.org/TR/2001/REC-SVG-20010904/DTD/svg10.dtd">
<svg version="1.0" xmlns="http://www.w3.org/2000/svg"
 width="378.000000pt" height="381.000000pt" viewBox="0 0 378.000000 381.000000"
 preserveAspectRatio="xMidYMid meet">

<g transform="translate(0.000000,381.000000) scale(0.100000,-0.100000)"
fill="#000000" stroke="none">
<path d="M2027 3119 l-228 -140 -147 30 c-81 17 -190 36 -243 42 -146 18 -233
-7 -111 -31 170 -34 386 -82 409 -91 26 -10 26 -10 -50 -80 -255 -234 -513
-703 -593 -1074 -24 -111 -24 -317 0 -410 26 -105 106 -259 171 -332 121 -135
290 -216 495 -237 l55 -6 -55 47 c-30 26 -100 92 -155 147 -118 118 -172 210
-207 352 -32 130 -32 365 1 519 79 378 281 819 442 970 l48 45 73 -26 c168
-61 393 -191 496 -287 79 -74 112 -130 112 -188 0 -80 -60 -135 -370 -343
-311 -209 -352 -251 -351 -356 0 -74 25 -133 83 -196 61 -66 154 -126 373
-239 288 -148 363 -203 412 -299 47 -92 13 -171 -109 -255 -97 -67 -113 -80
-106 -87 9 -9 140 61 195 105 97 76 146 176 123 246 -27 81 -103 144 -360 295
-228 134 -283 172 -351 241 -66 67 -83 108 -77 189 8 114 85 196 294 311 63
35 166 93 228 128 365 203 366 388 1 575 -83 43 -140 66 -462 190 -68 26 -123
51 -123 56 0 5 72 75 160 157 88 81 160 154 160 161 0 6 -1 12 -2 12 -2 -1
-106 -64 -231 -141z"/>
</g>
</svg>
